<?xml version="1.0" encoding="UTF-8" standalone="no"?>
<!DOCTYPE svg PUBLIC "-//W3C//DTD SVG 1.1//EN" "http://www.w3.org/Graphics/SVG/1.1/DTD/svg11.dtd">
<svg width="100%" height="100%" viewBox="0 0 1585 583" version="1.1" xmlns="http://www.w3.org/2000/svg" xmlns:xlink="http://www.w3.org/1999/xlink" xml:space="preserve" xmlns:serif="http://www.serif.com/" style="fill-rule:evenodd;clip-rule:evenodd;stroke-linejoin:round;stroke-miterlimit:2;">
    <g transform="matrix(1,0,0,1,-207.565,-458.747)">
        <g id="Black" transform="matrix(0.699237,0,0,0.899219,365.912,-146)">
            <rect x="-523.301" y="162.363" width="2860.26" height="1668.12" style="fill:none;"/>
            <g>
                <g transform="matrix(1.43013,0,0,1.11208,227.576,15.9567)">
                    <g transform="matrix(0.782541,0,0,0.782541,-642.816,290.04)">
                        <path d="M1720.07,610.08C1643.48,611.148 1526.21,606.475 1364.38,603.704C1271.18,602.109 1182.83,600.773 1134.67,600.712C1007.32,600.303 902.171,608.267 815.364,620.46C764.503,627.604 720,636.368 680.955,645.775C620.764,660.277 573.756,676.744 537.092,693.311C439.749,737.295 415.748,781.83 415.748,781.83C415.748,781.83 435.843,733.457 531.769,682.473C568.029,663.2 615.135,643.667 676.016,626.736C715.348,615.798 760.497,606.201 812.096,598.255C899.657,584.77 1005.96,576.614 1134.67,576.201C1182.91,576.139 1271.42,576.918 1364.79,578.609C1481.76,580.728 1611.32,582.728 1682.12,579.016C1708.65,577.614 1731.17,559.08 1737.64,533.313C1743.45,510.222 1750.03,484.074 1752.47,474.344C1753.03,472.139 1755.19,470.739 1757.43,471.142C1781.36,475.449 1905.98,497.885 1931.34,502.452C1932.52,502.664 1933.56,503.353 1934.21,504.357C1934.86,505.361 1935.06,506.59 1934.78,507.75C1930.24,523.261 1909.07,574.96 1823.91,597.298C1769.28,611.627 1754.94,609.594 1720.07,610.08Z"/>
                    </g>
                    <g transform="matrix(0.782541,0,0,0.782541,-642.816,290.04)">
                        <path d="M1207.34,560.839C1207.34,560.839 1280.33,496.895 1366.48,449.211C1406.44,427.09 1449.31,408.875 1488.65,401.128C1538.76,391.806 1586.05,386.437 1630.94,384.596C1709.06,381.391 1779.84,388.429 1845.34,400.882C1939.82,418.848 2023.26,448.49 2102.09,476.713C2189.16,507.887 2298.9,535.073 2348.61,536.559C2367.05,537.111 2394.63,535.53 2394.63,535.53C2394.39,561.073 2383.8,574.792 2371.96,587.082C2371.96,587.082 2182.58,532.243 2093.68,500.076C2016.04,471.98 1933.89,442.441 1840.84,424.087C1776.98,411.491 1707.98,404.329 1631.66,406.264C1587.63,407.381 1541.16,411.344 1491.84,419.395C1453.69,425.211 1412.02,441.585 1372.45,460.726C1284.4,503.317 1207.34,560.839 1207.34,560.839Z"/>
                    </g>
                    <g transform="matrix(0.782541,0,0,0.782541,-642.816,290.04)">
                        <path d="M2299.38,594.333C2272.19,582.09 2184.02,548.664 2184.02,548.664C2184.02,548.664 2302.33,581.265 2332.81,589.446C2357.3,596.02 2393.08,605.983 2414.86,623.881C2436.64,641.778 2441.03,666.766 2441.03,666.766C2441.03,666.766 2357.75,669.086 2344.14,666.801C2334.72,665.221 2320.43,650.643 2320.5,650.593C2333.25,641.3 2352.53,618.268 2299.38,594.333Z" style="fill:rgb(227,32,20);"/>
                    </g>
                </g>
                <g transform="matrix(1.15923,0,0,0.901425,-1492.67,-52.7966)">
                    <path d="M1423.2,1336.03L1355.81,1336.03L1351.78,1290.24L1298.5,1290.24L1278.05,1336.03L1250.12,1336.03L1335.08,1153.15L1403.33,1153.15L1423.2,1336.03ZM1308,1269.22L1349.76,1269.22L1343.14,1190.88L1308,1269.22Z" style="fill-rule:nonzero;"/>
                    <path d="M1509.6,1270.66C1508.64,1274.88 1507.88,1278.53 1507.3,1281.6C1506.72,1284.67 1506.43,1287.55 1506.43,1290.24C1506.43,1296.96 1508.79,1302.34 1513.49,1306.37C1518.19,1310.4 1525.15,1312.42 1534.37,1312.42C1541.09,1312.42 1546.61,1311.27 1550.93,1308.96C1555.25,1306.66 1558.8,1303.59 1561.59,1299.75C1564.37,1295.9 1566.58,1291.49 1568.21,1286.5C1569.84,1281.51 1571.24,1276.23 1572.39,1270.66L1596.87,1153.15L1623.08,1153.15L1598.02,1271.23C1596.1,1280.45 1593.32,1289.09 1589.67,1297.15C1586.02,1305.22 1580.79,1312.32 1573.97,1318.46C1567.15,1324.61 1558.37,1329.46 1547.62,1333.01C1536.87,1336.56 1523.52,1338.34 1507.59,1338.34C1485.51,1338.34 1469.19,1334.74 1458.63,1327.54C1448.07,1320.34 1442.79,1309.25 1442.79,1294.27C1442.79,1287.55 1443.65,1279.01 1445.38,1268.64C1447.11,1258.27 1449.32,1247.04 1452,1234.94L1469.57,1153.15L1534.95,1153.15L1509.6,1270.66Z" style="fill-rule:nonzero;"/>
                    <path d="M1789.54,1175.04L1743.17,1175.04L1708.9,1336.03L1646.69,1336.03L1680.96,1175.04L1635.17,1175.04L1640.36,1153.15L1794.43,1153.15L1789.54,1175.04Z" style="fill-rule:nonzero;"/>
                    <path d="M1887.17,1150.27C1903.68,1150.27 1917.08,1152.38 1927.35,1156.61C1937.62,1160.83 1945.73,1167.36 1951.68,1176.19C1955.52,1182.14 1958.5,1188.87 1960.61,1196.35C1962.72,1203.84 1963.78,1212.48 1963.78,1222.27C1963.78,1230.72 1963.01,1239.17 1961.48,1247.62C1959.94,1256.07 1957.78,1264.18 1955,1271.95C1952.21,1279.73 1948.85,1287.03 1944.91,1293.84C1940.98,1300.66 1936.61,1306.66 1931.81,1311.84C1922.79,1321.63 1912.37,1328.5 1900.56,1332.43C1888.76,1336.37 1874.21,1338.34 1856.93,1338.34C1840.23,1338.34 1826.79,1336.61 1816.61,1333.15C1806.43,1329.7 1798.37,1324.13 1792.42,1316.45C1788.19,1311.07 1784.88,1304.26 1782.48,1296C1780.08,1287.75 1778.88,1277.38 1778.88,1264.9C1778.88,1243.59 1782.67,1224.53 1790.26,1207.73C1797.84,1190.93 1808.64,1177.63 1822.66,1167.84C1831.11,1161.89 1840.52,1157.47 1850.88,1154.59C1861.25,1151.71 1873.35,1150.27 1887.17,1150.27ZM1854.63,1318.18C1859.04,1318.18 1863.22,1316.21 1867.15,1312.27C1871.09,1308.34 1874.74,1303.06 1878.1,1296.43C1881.46,1289.81 1884.53,1282.27 1887.32,1273.83C1890.1,1265.38 1892.45,1256.64 1894.37,1247.62C1896.29,1238.59 1897.78,1229.62 1898.84,1220.69C1899.89,1211.76 1900.42,1203.65 1900.42,1196.35C1900.42,1186.37 1899.41,1179.51 1897.39,1175.76C1895.38,1172.02 1892.45,1170.14 1888.61,1170.14C1884.19,1170.14 1879.97,1172.07 1875.94,1175.9C1871.91,1179.75 1868.12,1184.88 1864.56,1191.31C1861.01,1197.75 1857.84,1205.14 1855.06,1213.49C1852.28,1221.84 1849.88,1230.43 1847.86,1239.27C1845.84,1248.1 1844.31,1256.83 1843.25,1265.47C1842.19,1274.11 1841.67,1282.08 1841.67,1289.38C1841.67,1300.32 1842.87,1307.86 1845.27,1311.99C1847.67,1316.11 1850.79,1318.18 1854.63,1318.18Z" style="fill-rule:nonzero;"/>
                    <path d="M2079.55,1206.14C2080.13,1203.27 2080.42,1199.33 2080.42,1194.34C2080.42,1191.46 2080.23,1188.62 2079.84,1185.84C2079.46,1183.06 2078.79,1180.56 2077.83,1178.35C2076.87,1176.14 2075.43,1174.42 2073.51,1173.17C2071.59,1171.92 2069.09,1171.3 2066.02,1171.3C2062.56,1171.3 2059.39,1172.07 2056.51,1173.6C2053.64,1175.14 2051.09,1177.11 2048.88,1179.51C2046.67,1181.9 2044.95,1184.69 2043.7,1187.86C2042.45,1191.03 2041.83,1194.34 2041.83,1197.79C2041.83,1202.79 2043.12,1206.62 2045.72,1209.31C2048.31,1212 2051.72,1214.21 2055.94,1215.94C2060.16,1217.66 2064.96,1219.11 2070.34,1220.26C2075.72,1221.41 2081.28,1222.75 2087.04,1224.29C2091.84,1225.63 2096.64,1227.36 2101.44,1229.47C2106.24,1231.59 2110.51,1234.42 2114.26,1237.97C2118,1241.52 2121.03,1246.13 2123.33,1251.79C2125.64,1257.46 2126.79,1264.51 2126.79,1272.96C2126.79,1285.06 2124.39,1295.23 2119.59,1303.49C2114.79,1311.75 2108.16,1318.46 2099.72,1323.65C2091.27,1328.83 2081.24,1332.58 2069.62,1334.88C2058,1337.18 2045.38,1338.34 2031.75,1338.34C2017.92,1338.34 2006.64,1337.42 1997.91,1335.6C1989.17,1333.78 1982.31,1331.81 1977.32,1329.7C1971.36,1327.2 1966.95,1324.32 1964.07,1321.06L1973.86,1281.6L2024.55,1281.6C2024.36,1283.33 2024.16,1285.68 2023.97,1288.66C2023.78,1291.63 2023.68,1293.99 2023.68,1295.71C2023.68,1298.02 2023.97,1300.42 2024.55,1302.91C2025.12,1305.41 2026.04,1307.71 2027.28,1309.83C2028.53,1311.94 2030.31,1313.66 2032.61,1315.01C2034.91,1316.35 2037.8,1317.03 2041.25,1317.03C2045.09,1317.03 2048.5,1316.16 2051.47,1314.43C2054.45,1312.7 2056.95,1310.55 2058.96,1307.95C2060.98,1305.36 2062.51,1302.48 2063.57,1299.31C2064.63,1296.14 2065.16,1293.03 2065.16,1289.95C2065.16,1285.73 2064.15,1282.18 2062.13,1279.3C2060.12,1276.42 2057.38,1273.97 2053.92,1271.95C2050.47,1269.94 2046.48,1268.21 2041.97,1266.77C2037.46,1265.33 2032.8,1263.84 2028,1262.31C2023.39,1260.96 2018.55,1259.33 2013.46,1257.41C2008.37,1255.49 2003.72,1252.8 1999.49,1249.35C1995.27,1245.89 1991.76,1241.52 1988.98,1236.24C1986.19,1230.96 1984.8,1224.19 1984.8,1215.94C1984.8,1203.65 1987.92,1193.33 1994.16,1184.98C2000.4,1176.62 2008.28,1169.86 2017.78,1164.67C2027.28,1159.49 2037.7,1155.79 2049.03,1153.59C2060.36,1151.38 2071.11,1150.27 2081.28,1150.27C2094.72,1150.27 2106.29,1151.86 2115.99,1155.03C2125.68,1158.19 2133.03,1161.89 2138.02,1166.11L2127.36,1206.14L2079.55,1206.14Z" style="fill-rule:nonzero;"/>
                    <path d="M2174.02,1153.15L2295.27,1153.15L2290.66,1175.04L2231.91,1175.04L2219.81,1230.62L2269.06,1230.62L2264.45,1252.23L2215.2,1252.23L2201.95,1313.86L2260.71,1313.86L2256.39,1336.03L2135.14,1336.03L2174.02,1153.15Z" style="fill-rule:nonzero;"/>
                    <path d="M2459.43,1196.64C2459.43,1207.97 2456.26,1218.43 2449.92,1228.03C2443.59,1237.63 2433.12,1244.93 2418.53,1249.92L2451.94,1336.03L2387.72,1336.03L2362.37,1256.26L2359.2,1256.26L2342.21,1336.03L2280,1336.03L2318.88,1153.15L2394.63,1153.15C2403.46,1153.15 2411.81,1153.68 2419.68,1154.74C2427.55,1155.79 2434.42,1157.9 2440.28,1161.07C2446.13,1164.24 2450.79,1168.66 2454.24,1174.32C2457.7,1179.99 2459.43,1187.42 2459.43,1196.64ZM2376.48,1237.83C2381.47,1237.83 2385.75,1236.14 2389.3,1232.79C2392.85,1229.42 2395.73,1225.35 2397.94,1220.55C2400.15,1215.75 2401.73,1210.61 2402.69,1205.14C2403.65,1199.66 2404.13,1194.91 2404.13,1190.88C2404.13,1185.89 2403.27,1181.62 2401.54,1178.07C2399.81,1174.51 2396.07,1172.74 2390.31,1172.74L2377.35,1172.74L2362.95,1237.83L2376.48,1237.83Z" style="fill-rule:nonzero;"/>
                    <path d="M2480.16,1153.15L2545.83,1153.15L2555.62,1276.99L2615.52,1153.15L2644.03,1153.15L2558.79,1336.03L2490.82,1336.03L2480.16,1153.15Z" style="fill-rule:nonzero;"/>
                    <path d="M2686.08,1336.03L2623.88,1336.03L2662.76,1153.15L2725.25,1153.15L2686.08,1336.03Z" style="fill-rule:nonzero;"/>
                    <path d="M2831.24,1206.14C2831.81,1203.27 2832.1,1199.33 2832.1,1194.34C2832.1,1191.46 2831.91,1188.62 2831.52,1185.84C2831.14,1183.06 2830.47,1180.56 2829.51,1178.35C2828.55,1176.14 2827.11,1174.42 2825.19,1173.17C2823.27,1171.92 2820.77,1171.3 2817.7,1171.3C2814.24,1171.3 2811.08,1172.07 2808.2,1173.6C2805.32,1175.14 2802.77,1177.11 2800.56,1179.51C2798.36,1181.9 2796.63,1184.69 2795.38,1187.86C2794.13,1191.03 2793.51,1194.34 2793.51,1197.79C2793.51,1202.79 2794.8,1206.62 2797.39,1209.31C2799.99,1212 2803.39,1214.21 2807.62,1215.94C2811.84,1217.66 2816.64,1219.11 2822.02,1220.26C2827.39,1221.41 2832.96,1222.75 2838.72,1224.29C2843.52,1225.63 2848.32,1227.36 2853.12,1229.47C2857.92,1231.59 2862.2,1234.42 2865.94,1237.97C2869.68,1241.52 2872.71,1246.13 2875.01,1251.79C2877.32,1257.46 2878.47,1264.51 2878.47,1272.96C2878.47,1285.06 2876.07,1295.23 2871.27,1303.49C2866.47,1311.75 2859.84,1318.46 2851.39,1323.65C2842.95,1328.83 2832.91,1332.58 2821.3,1334.88C2809.68,1337.18 2797.06,1338.34 2783.43,1338.34C2769.6,1338.34 2758.32,1337.42 2749.59,1335.6C2740.85,1333.78 2733.99,1331.81 2728.99,1329.7C2723.04,1327.2 2718.63,1324.32 2715.75,1321.06L2725.54,1281.6L2776.23,1281.6C2776.03,1283.33 2775.84,1285.68 2775.65,1288.66C2775.46,1291.63 2775.36,1293.99 2775.36,1295.71C2775.36,1298.02 2775.65,1300.42 2776.23,1302.91C2776.8,1305.41 2777.72,1307.71 2778.96,1309.83C2780.21,1311.94 2781.99,1313.66 2784.29,1315.01C2786.6,1316.35 2789.47,1317.03 2792.93,1317.03C2796.77,1317.03 2800.18,1316.16 2803.16,1314.43C2806.13,1312.7 2808.63,1310.55 2810.64,1307.95C2812.66,1305.36 2814.2,1302.48 2815.25,1299.31C2816.31,1296.14 2816.84,1293.03 2816.84,1289.95C2816.84,1285.73 2815.83,1282.18 2813.81,1279.3C2811.8,1276.42 2809.06,1273.97 2805.6,1271.95C2802.15,1269.94 2798.16,1268.21 2793.65,1266.77C2789.14,1265.33 2784.48,1263.84 2779.68,1262.31C2775.08,1260.96 2770.23,1259.33 2765.14,1257.41C2760.05,1255.49 2755.39,1252.8 2751.17,1249.35C2746.95,1245.89 2743.44,1241.52 2740.66,1236.24C2737.88,1230.96 2736.48,1224.19 2736.48,1215.94C2736.48,1203.65 2739.6,1193.33 2745.84,1184.98C2752.08,1176.62 2759.95,1169.86 2769.46,1164.67C2778.96,1159.49 2789.38,1155.79 2800.71,1153.59C2812.03,1151.38 2822.79,1150.27 2832.96,1150.27C2846.4,1150.27 2857.97,1151.86 2867.67,1155.03C2877.36,1158.19 2884.71,1161.89 2889.7,1166.11L2879.04,1206.14L2831.24,1206.14Z" style="fill-rule:nonzero;"/>
                </g>
                <g transform="matrix(0.423972,0,0,0.329683,122.107,878.621)">
                    <path d="M1359.27,1339.76C1405.65,1339.76 1431.83,1310.42 1431.83,1265.2L1431.83,1134.45L1417.17,1134.45L1417.17,1264.91C1417.17,1302.36 1397.58,1325.97 1359.27,1325.97C1320.95,1325.97 1301.36,1302.36 1301.36,1264.91L1301.36,1134.45L1286.71,1134.45L1286.71,1265.2C1286.71,1310.42 1312.88,1339.76 1359.27,1339.76Z" style="fill-rule:nonzero;"/>
                    <path d="M1644.66,1301.77C1638.9,1306.96 1617.59,1325.97 1582.74,1325.97C1532.91,1325.97 1496.91,1287.37 1496.91,1235.23C1496.91,1183.1 1534.93,1144.5 1581.87,1144.5C1612.11,1144.5 1633.42,1160.05 1640.34,1166.1L1645.52,1152.85C1636.02,1144.78 1613.84,1130.71 1581.87,1130.71C1526.58,1130.71 1481.68,1175.61 1481.68,1235.23C1481.68,1294.86 1525.42,1339.76 1582.74,1339.76C1619.6,1339.76 1644.08,1320.5 1649.55,1314.74L1644.66,1301.77Z" style="fill-rule:nonzero;"/>
                    <path d="M1699.7,1336.02L1714.35,1336.02L1714.35,1239.82L1833.33,1239.82L1833.33,1336.02L1847.99,1336.02L1847.99,1134.45L1833.33,1134.45L1833.33,1226.04L1714.35,1226.04L1714.35,1134.45L1699.7,1134.45L1699.7,1336.02Z" style="fill-rule:nonzero;"/>
                    <path d="M1952.57,1336.02L1967.22,1336.02L1967.22,1240.13L2030,1134.45L2013.59,1134.45L1960.04,1225.73L1907.06,1134.45L1890.07,1134.45L1952.57,1240.13L1952.57,1336.02Z" style="fill-rule:nonzero;"/>
                    <path d="M2120.18,1336.02L2134.83,1336.02L2134.83,1147.95L2192.72,1147.95L2192.72,1134.45L2062.29,1134.45L2062.29,1147.95L2120.18,1147.95L2120.18,1336.02Z" style="fill-rule:nonzero;"/>
                    <rect x="2242.01" y="1134.45" width="14.652" height="201.564" style="fill-rule:nonzero;"/>
                    <path d="M2320.05,1336.02L2415.06,1336.02L2415.06,1322.52L2334.7,1322.52L2334.7,1134.45L2320.05,1134.45L2320.05,1336.02Z" style="fill-rule:nonzero;"/>
                </g>
            </g>
        </g>
    </g>
</svg>
