<svg version="1.1" id="Layer_1" xmlns="http://www.w3.org/2000/svg" xmlns:xlink="http://www.w3.org/1999/xlink" x="0px" y="0px"
	 width="100%" viewBox="0 0 1024 1024" enable-background="new 0 0 1024 1024" xml:space="preserve">
<path fill="#000000" opacity="1.000000" stroke="none" 
	d="
M652.894287,444.023132 
	C639.621521,451.139954 625.476013,453.650421 611.108948,454.023743 
	C580.295288,454.824463 549.469910,454.119019 518.652161,453.493500 
	C507.156982,453.260162 495.657013,453.206970 484.158966,453.182007 
	C446.169281,453.099609 408.190857,451.333252 370.197632,452.221924 
	C331.950348,453.116516 294.252136,457.686310 257.545532,469.142426 
	C233.730621,476.575012 212.582397,488.293121 194.825684,505.931458 
	C193.887939,506.862976 192.843643,507.692383 191.800720,508.507629 
	C191.631165,508.640167 191.208664,508.449127 190.415634,508.341400 
	C192.041031,503.539734 195.522293,500.206604 198.765900,496.851166 
	C213.173157,481.947266 230.596146,471.758942 249.959488,464.726074 
	C286.132782,451.587677 323.646698,445.684692 361.943115,443.805328 
	C407.587891,441.565369 453.245148,443.254547 498.896057,443.065155 
	C531.389893,442.930328 563.883728,442.784302 596.377380,442.612915 
	C605.790466,442.563263 605.813171,442.503143 608.205933,433.467834 
	C610.038757,426.547180 611.999573,419.655670 613.614868,412.684296 
	C614.361450,409.461823 615.676697,408.115326 619.115295,408.794220 
	C635.933594,412.114746 652.761597,415.392151 669.622070,418.489014 
	C673.176941,419.141968 673.582825,420.705658 672.462402,423.669189 
	C668.886902,433.125824 661.570984,438.967255 652.894287,444.023132 
z"/>
<path fill="#000000" opacity="1.000000" stroke="none" 
	d="
M634.931885,394.903137 
	C682.520691,404.981445 729.660767,415.130280 776.884827,424.871887 
	C788.917847,427.354187 801.151733,429.091919 813.543640,428.981567 
	C818.791809,428.934814 819.377441,429.803711 818.101624,434.879120 
	C817.777344,436.169067 817.388489,437.450867 816.919373,438.694977 
	C814.023926,446.374817 812.276855,447.259094 804.214966,445.309570 
	C758.142578,434.168274 712.308777,422.033997 665.983521,411.946411 
	C634.955994,405.189972 603.914612,398.399384 572.214355,395.566895 
	C558.806885,394.368896 545.336670,393.009644 531.865906,395.074860 
	C520.164673,396.868713 509.673737,401.952179 499.253021,407.202393 
	C481.233856,416.280945 464.042877,426.774902 447.162689,437.791290 
	C443.444580,440.217804 439.677765,440.841858 435.183228,438.947723 
	C437.940857,435.423767 441.623840,433.717621 444.842926,431.497925 
	C465.565308,417.209442 486.792206,403.736938 509.606049,392.975494 
	C526.698059,384.913086 544.846863,384.223602 563.328247,385.387878 
	C585.286194,386.771149 607.021912,389.676575 628.624023,393.734497 
	C630.586304,394.103149 632.550903,394.460083 634.931885,394.903137 
z"/>
<path fill="#000000" opacity="1.000000" stroke="none" 
	d="
M463.188782,579.021606 
	C452.734039,594.997498 429.506226,601.314636 412.574371,593.083252 
	C407.110199,590.426758 403.531921,585.958252 402.170380,580.291565 
	C398.532227,565.149719 400.374695,550.711243 410.147705,538.164307 
	C420.446289,524.942627 444.368713,520.573914 458.966614,528.845154 
	C467.113068,533.460876 469.756744,541.218933 470.183868,549.900391 
	C470.685913,560.104797 468.324005,569.735229 463.188782,579.021606 
M444.976624,536.939392 
	C441.988159,532.572021 438.589752,532.802307 435.292480,538.182495 
	C427.886505,550.266785 425.308441,563.694275 425.228058,577.678650 
	C425.207672,581.227051 424.349487,586.013123 428.830994,587.003235 
	C432.913208,587.905029 435.090302,583.719727 436.715851,580.533386 
	C443.578827,567.080750 446.274017,552.735474 444.976624,536.939392 
z"/>
<path fill="#000000" opacity="1.000000" stroke="none" 
	d="
M603.963623,537.224609 
	C606.705139,525.902832 606.705994,525.815063 618.285522,525.927368 
	C626.424866,526.006226 634.564941,525.489502 642.706360,526.561890 
	C652.058350,527.793762 657.648804,531.681763 659.109619,538.650452 
	C660.826294,546.840088 657.172607,556.337463 649.872803,560.156433 
	C645.343079,562.526184 644.930786,564.769409 646.922974,569.113037 
	C649.828735,575.448608 652.059204,582.097229 654.494080,588.643433 
	C655.167664,590.454407 656.326355,592.224426 655.455200,595.093445 
	C648.400940,595.093445 641.157104,595.217041 633.921631,595.025024 
	C631.452759,594.959473 631.145691,592.453125 630.546692,590.595947 
	C628.064819,582.901672 625.634888,575.190613 622.844177,566.410461 
	C619.657837,574.513977 618.557739,581.885681 617.347656,589.170288 
	C616.566406,593.873718 614.593811,595.782227 609.773499,595.340515 
	C605.647888,594.962463 601.451050,595.085938 597.302795,595.307983 
	C593.021240,595.537170 591.722473,594.138733 592.717407,589.758301 
	C596.432495,573.402649 599.863525,556.982422 603.389160,540.583923 
	C603.598328,539.611023 603.704102,538.615784 603.963623,537.224609 
M631.428528,556.357544 
	C637.363464,551.661682 638.117859,545.149475 637.516785,538.306274 
	C637.271912,535.517517 634.964172,534.680054 632.443542,534.422791 
	C629.624329,534.135010 628.703125,535.705139 628.228088,538.177795 
	C627.381592,542.584961 626.243652,546.935242 625.319092,551.328552 
	C624.098267,557.129517 624.374329,557.371948 631.428528,556.357544 
z"/>
<path fill="#000000" opacity="1.000000" stroke="none" 
	d="
M481.369141,559.377075 
	C476.630707,549.746765 478.511139,540.538208 486.303040,533.840271 
	C497.274567,524.409119 519.882812,521.958008 532.726440,528.724976 
	C535.436462,530.152832 536.724121,531.813782 535.749084,535.093628 
	C531.487427,549.429810 534.672058,546.513550 520.505310,547.086182 
	C515.722168,547.279480 513.321899,545.968567 513.783813,540.715332 
	C514.033203,537.879395 513.547607,534.782349 509.724518,534.358459 
	C505.780548,533.921204 503.440369,536.393433 502.027832,539.568237 
	C500.681122,542.595154 500.409241,545.892822 503.659485,548.058716 
	C505.425079,549.235229 507.519226,549.999878 509.558411,550.664001 
	C512.084106,551.486511 514.708374,552.004761 517.286621,552.667603 
	C524.926270,554.631592 530.894409,558.522522 532.068420,566.964844 
	C533.289001,575.742859 531.351501,583.739441 523.786987,589.173279 
	C513.374084,596.653015 501.314575,596.669495 489.227875,595.789062 
	C484.236145,595.425415 479.371338,594.274719 474.781311,592.107727 
	C471.996643,590.793091 470.750916,589.064880 471.616302,585.799744 
	C475.506348,571.122192 473.025604,574.063538 486.142273,573.774475 
	C486.974976,573.756104 487.821350,573.877258 488.639618,573.768982 
	C492.986938,573.193909 494.498352,574.961243 494.375519,579.391846 
	C494.215759,585.151855 497.800018,588.047668 502.418060,586.431091 
	C505.936646,585.199402 507.446014,582.251526 508.085785,578.796997 
	C508.673035,575.626221 507.327881,573.276672 504.728455,571.593323 
	C501.323792,569.388428 497.387390,568.508545 493.607086,567.236572 
	C489.002686,565.687317 484.444397,564.034729 481.369141,559.377075 
z"/>
<path fill="#000000" opacity="1.000000" stroke="none" 
	d="
M776.195435,534.153259 
	C790.255310,524.079956 805.161011,522.552246 820.989929,527.954224 
	C825.247437,529.407166 827.019653,531.749817 825.436218,536.617004 
	C821.642273,548.279175 824.937256,546.698242 810.437866,547.015259 
	C805.954529,547.113220 803.505798,545.972717 803.888733,540.908203 
	C804.098083,538.139771 803.941772,534.904663 800.093750,534.362183 
	C795.950684,533.778137 793.442017,536.329407 791.983887,539.687805 
	C790.670471,542.713074 790.523987,546.032349 793.789734,548.141052 
	C795.570007,549.290527 797.666077,550.017273 799.700806,550.688965 
	C802.063416,551.468811 804.506836,552.012390 806.929199,552.600952 
	C814.776001,554.507324 820.725403,558.425903 822.173340,567.046204 
	C823.801208,576.737854 820.296326,585.982666 812.151917,590.273254 
	C796.988159,598.261414 781.173950,597.974854 765.303711,592.220032 
	C761.656250,590.897400 760.892639,588.256348 761.994629,584.606018 
	C765.608398,572.636230 762.514160,573.775452 776.011047,573.821899 
	C776.843201,573.824768 777.685669,573.908386 778.505859,573.809692 
	C782.676270,573.307556 784.532715,574.742676 784.415710,579.312012 
	C784.275146,584.798218 787.033020,587.341309 791.421204,586.677124 
	C795.740906,586.023438 797.401978,582.764404 798.338623,579.077454 
	C799.184631,575.747314 797.699768,573.231812 794.861816,571.515625 
	C791.409485,569.427917 787.505127,568.473083 783.720276,567.221191 
	C767.132324,561.734558 763.632812,546.975037 776.195435,534.153259 
z"/>
<path fill="#000000" opacity="1.000000" stroke="none" 
	d="
M239.020630,525.906250 
	C255.371811,526.359070 252.373276,522.850098 254.399323,539.935242 
	C256.333069,556.242126 258.168732,572.560608 260.101349,588.867676 
	C260.758301,594.410767 260.157349,595.188965 254.423096,595.227295 
	C249.432434,595.260620 244.436371,595.085388 239.452011,595.263367 
	C235.930542,595.389099 234.393127,593.944031 233.901718,590.481323 
	C232.143356,578.091370 232.065430,578.266174 219.582733,578.106079 
	C215.447815,578.053040 212.997650,579.295288 211.812881,583.298706 
	C211.205017,585.352783 210.088074,587.256226 209.199966,589.227234 
	C206.231155,595.816101 203.555420,596.839539 196.330154,594.117615 
	C195.700729,592.505005 196.758392,591.268860 197.366562,589.957642 
	C206.183258,570.948853 215.226776,552.041016 223.715683,532.887268 
	C226.125717,527.449402 229.215332,524.967407 235.039749,525.882690 
	C236.176193,526.061218 237.364883,525.907104 239.020630,525.906250 
M223.301331,557.699097 
	C221.970245,561.212524 219.607605,564.351990 219.228104,568.274414 
	C221.791565,569.551453 224.328156,568.809998 226.764069,569.052917 
	C230.806442,569.456299 232.116653,567.512512 231.696976,563.714905 
	C231.009033,557.489685 230.466309,551.248413 229.730637,543.654541 
	C227.316376,548.929871 225.466599,552.971802 223.301331,557.699097 
z"/>
<path fill="#000000" opacity="1.000000" stroke="none" 
	d="
M329.325439,568.119751 
	C327.006195,581.227295 321.299438,591.081055 307.848938,594.599243 
	C299.618225,596.752075 291.325043,596.771301 283.122345,594.829407 
	C273.428406,592.534424 268.984589,585.300659 270.272797,575.383972 
	C272.246948,560.187012 276.453522,545.454956 279.292938,530.442749 
	C279.888458,527.294189 281.291168,525.796143 284.601410,525.876831 
	C289.928436,526.006653 295.263000,525.960754 300.591553,525.851074 
	C304.413361,525.772461 305.556213,527.216614 304.674042,531.061157 
	C301.624695,544.350098 298.826538,557.696594 295.927521,571.020081 
	C295.821594,571.506958 295.622894,571.974854 295.532074,572.463684 
	C294.331238,578.924683 295.769562,582.858826 299.879242,584.391541 
	C305.898926,586.636597 312.586975,584.320679 315.415222,578.818054 
	C317.962250,573.862549 318.603729,568.339172 319.729919,562.970703 
	C322.017059,552.068237 324.248779,541.153809 326.605316,530.266357 
	C327.445099,526.386475 333.873627,524.108643 336.837128,526.528259 
	C338.720612,528.066040 337.551392,529.990784 337.202148,531.644775 
	C334.661285,543.679382 331.997314,555.687866 329.325439,568.119751 
z"/>
<path fill="#000000" opacity="1.000000" stroke="none" 
	d="
M710.236084,547.288330 
	C713.150024,541.257263 715.855835,535.539246 718.639832,529.859619 
	C720.367676,526.334656 726.338257,524.363770 729.737976,526.243835 
	C732.514954,527.779602 730.569824,529.735962 729.828613,531.343445 
	C722.511536,547.213562 715.202148,563.088562 707.694580,578.868835 
	C705.140686,584.236816 704.359619,591.435669 699.339417,594.391052 
	C694.574097,597.196289 687.944214,595.147278 682.137756,595.229614 
	C673.919922,595.346191 674.078430,595.239075 673.616455,587.222534 
	C672.545044,568.631226 671.396973,550.042908 670.059326,531.469238 
	C669.758423,527.290588 671.018799,525.651733 675.244934,525.842224 
	C680.230103,526.066956 685.239868,526.046997 690.226379,525.836304 
	C693.705994,525.689331 695.471802,526.895386 695.742981,530.485474 
	C696.531067,540.918579 697.478760,551.339478 698.295227,561.770569 
	C698.463623,563.922424 698.276550,566.107727 699.791565,568.750122 
	C703.337708,561.453003 706.699402,554.535278 710.236084,547.288330 
z"/>
<path fill="#000000" opacity="1.000000" stroke="none" 
	d="
M584.956177,525.886108 
	C587.279541,525.885010 589.129150,525.720703 590.937378,525.924255 
	C593.126648,526.170776 596.609009,524.758484 596.369995,528.953674 
	C596.180969,532.272400 595.820801,535.725952 590.823059,535.389099 
	C586.348755,535.087585 581.831299,535.477112 577.344727,535.285706 
	C574.439514,535.161865 573.030029,536.432617 572.486023,539.090820 
	C571.720337,542.832336 571.230164,546.664734 570.072937,550.282593 
	C568.780701,554.322571 570.661865,554.936707 573.927551,554.831970 
	C576.588440,554.746582 579.261963,554.690735 581.915405,554.854736 
	C583.830627,554.973083 586.911926,553.897644 586.583252,557.482117 
	C586.325623,560.292114 586.385864,563.898560 582.071533,564.058289 
	C578.580200,564.187561 575.078064,564.204102 571.586426,564.092834 
	C568.462524,563.993286 566.622803,564.988342 566.104431,568.393005 
	C565.480469,572.491516 564.395264,576.521118 563.477966,580.573364 
	C562.683289,584.084106 563.598877,585.839172 567.652893,585.780029 
	C572.744141,585.705688 577.897034,585.161621 582.902344,586.189148 
	C583.913940,593.867493 582.817200,595.259644 575.841736,595.271667 
	C564.521118,595.291138 553.199036,595.160522 541.880493,595.311096 
	C537.628479,595.367615 536.332703,594.102966 537.307556,589.704712 
	C541.657349,570.079529 545.763916,550.399963 549.866394,530.720886 
	C550.596069,527.220703 552.254028,525.731506 555.997559,525.817688 
	C565.481934,526.036133 574.974670,525.887573 584.956177,525.886108 
z"/>
<path fill="#000000" opacity="1.000000" stroke="none" 
	d="
M348.519104,525.979309 
	C365.286957,525.917603 381.607635,525.858521 397.927948,525.917053 
	C400.013184,525.924561 403.340485,525.010559 403.026123,528.747070 
	C402.765533,531.844116 402.678711,535.870422 397.591034,535.324829 
	C397.426575,535.307190 397.258179,535.322754 397.091705,535.327087 
	C384.414429,535.657043 384.330750,535.639160 381.644653,548.187134 
	C378.754059,561.690308 375.834625,575.193970 373.357880,588.775879 
	C372.424072,593.896606 370.219238,595.838257 365.073608,595.334167 
	C360.949127,594.929993 356.748444,595.098206 352.592865,595.276123 
	C348.688568,595.443359 347.746521,594.036316 348.583679,590.209534 
	C352.207581,573.643677 355.436432,556.990540 359.140686,540.443481 
	C360.125671,536.043457 358.653229,535.014465 354.767181,535.315857 
	C353.112061,535.444275 351.422638,535.471191 349.776703,535.290466 
	C347.780853,535.071350 344.565918,536.330383 344.227325,533.577637 
	C343.881287,530.764526 343.785309,526.977783 348.519104,525.979309 
z"/>
<path fill="#000000" opacity="1.000000" stroke="none" 
	d="
M753.270020,577.057434 
	C752.213196,582.018555 751.142883,586.548340 750.236633,591.110718 
	C749.660645,594.010010 748.216431,595.390747 745.115845,595.290222 
	C740.123047,595.128296 735.119324,595.167480 730.123657,595.276062 
	C726.567322,595.353271 725.273132,593.888184 726.030640,590.381042 
	C730.381897,570.234314 734.715088,550.083618 738.976196,529.917664 
	C739.614929,526.894958 741.291443,525.823669 744.241333,525.889282 
	C749.070251,525.996582 753.912537,526.080811 758.732361,525.839355 
	C762.991394,525.625916 763.958313,527.459290 763.119751,531.279602 
	C759.803345,546.388306 756.582397,561.518005 753.270020,577.057434 
z"/>
<path fill="#000000" opacity="1.000000" stroke="none" 
	d="
M774.985474,445.122314 
	C770.595947,443.695251 766.585815,442.373505 762.575623,441.051758 
	C768.595398,440.055847 774.160522,441.469238 779.752808,442.611908 
	C792.577393,445.232391 805.567261,447.301697 817.581177,452.858582 
	C823.836609,455.751892 829.694397,459.284821 832.639221,465.987030 
	C834.809021,470.925568 833.917175,472.284424 828.632996,472.320068 
	C821.484253,472.368286 814.334717,472.300110 807.185974,472.343231 
	C804.648499,472.358551 802.205566,471.986633 799.904602,470.939484 
	C795.439209,468.907288 794.998840,467.282867 797.696899,463.172058 
	C800.493958,458.910553 799.898499,456.231659 795.161011,453.340607 
	C789.010132,449.586975 782.077942,447.656158 774.985474,445.122314 
z"/>
<path fill="#000000" opacity="1.000000" stroke="none" 
	d="
M214.774734,491.640869 
	C227.311157,483.803711 240.348801,477.865021 254.186722,473.307281 
	C249.181824,478.691315 244.256927,484.018280 238.328262,488.326599 
	C231.629913,493.194244 224.119583,495.336365 215.918442,495.237854 
	C214.827423,495.224762 213.397736,495.474396 212.934235,494.041779 
	C212.541763,492.828766 213.680847,492.374725 214.774734,491.640869 
z"/>
<path fill="#000000" opacity="1.000000" stroke="none" 
	d="
M473.217896,644.237427 
	C474.577209,642.681641 475.718689,641.116760 477.559875,642.603149 
	C478.703613,643.526489 477.836823,644.717651 477.277344,645.739014 
	C474.814911,650.233948 468.313202,652.556641 462.859039,650.881775 
	C457.532166,649.246094 454.114288,643.606873 454.741150,637.487854 
	C455.340271,631.639343 459.657318,627.296265 465.416199,626.748291 
	C471.588562,626.160950 476.120087,629.127869 477.838776,635.003296 
	C475.250549,636.979797 474.155884,634.567322 472.665558,633.251831 
	C469.471985,630.432800 464.104004,630.309937 461.233002,632.940247 
	C458.480133,635.462341 458.012299,640.665710 460.245148,643.927673 
	C462.923248,647.840027 468.101379,648.082092 473.217896,644.237427 
z"/>
<path fill="#000000" opacity="1.000000" stroke="none" 
	d="
M507.315430,632.293701 
	C507.294861,637.744507 507.302490,642.732422 507.248169,647.719666 
	C507.233612,649.056763 507.135162,650.590759 505.315277,650.637390 
	C503.595703,650.681396 503.234985,649.263550 503.039062,647.896423 
	C502.945282,647.241821 502.961243,646.569946 502.949158,645.905457 
	C502.897675,643.077087 503.458252,640.172546 498.763885,640.476135 
	C494.758759,640.735168 491.418304,640.671326 492.231323,646.216553 
	C492.464722,647.808655 492.973541,650.521851 490.356659,650.577393 
	C487.470398,650.638672 487.997833,647.850769 487.962555,645.992859 
	C487.867920,641.007324 487.907776,636.017639 487.989532,631.031250 
	C488.016754,629.371094 488.141113,627.346497 490.475311,627.495422 
	C492.545074,627.627380 492.206329,629.552917 492.311676,631.001526 
	C492.694824,636.270081 495.567688,638.132263 500.715973,636.618774 
	C503.501678,635.799927 502.700287,633.581726 502.920898,631.722412 
	C503.126251,629.991943 502.617523,627.501709 505.236816,627.551392 
	C507.947632,627.602661 507.030579,630.178467 507.315430,632.293701 
z"/>
<path fill="#000000" opacity="1.000000" stroke="none" 
	d="
M441.579102,635.960083 
	C441.594818,633.533203 441.592926,631.541992 441.627014,629.551453 
	C441.645172,628.490723 441.931396,627.494446 443.183441,627.406128 
	C444.355591,627.323364 445.130341,628.091797 445.139954,629.197021 
	C445.186005,634.481445 446.072449,639.835327 444.601379,645.023254 
	C443.356842,649.412292 440.141632,651.385315 435.595673,651.323608 
	C430.963318,651.260681 428.084045,648.857178 426.890961,644.567261 
	C425.537811,639.701721 426.753021,634.675903 426.378082,629.730225 
	C426.289856,628.566772 426.912842,627.369873 428.430267,627.439575 
	C429.944733,627.509094 430.259247,628.698364 430.284821,629.911133 
	C430.351227,633.062317 430.168518,636.228943 430.415070,639.363464 
	C430.684021,642.783142 430.595490,646.745789 435.586700,646.963745 
	C440.548584,647.180481 440.824493,643.302612 441.449829,639.872681 
	C441.655701,638.743652 441.543304,637.556519 441.579102,635.960083 
z"/>
<path fill="#000000" opacity="1.000000" stroke="none" 
	d="
M522.363647,630.658936 
	C523.824646,632.841248 524.359924,635.219421 526.229126,636.691467 
	C530.072876,634.335083 529.881592,628.043457 535.237000,627.170349 
	C536.770447,629.474182 535.247803,630.741211 534.516663,632.072571 
	C531.678711,637.240234 527.501770,641.861938 528.231445,648.421509 
	C528.345154,649.443604 527.836975,650.446594 526.665955,650.642151 
	C525.521057,650.833374 524.452026,650.117310 524.528076,649.093628 
	C525.135315,640.923096 519.449768,635.063232 516.397583,628.128906 
	C519.839539,626.227295 521.012329,628.299255 522.363647,630.658936 
z"/>
<path fill="#000000" opacity="1.000000" stroke="none" 
	d="
M543.304871,629.736389 
	C542.981567,627.842163 543.977234,627.165344 545.203857,627.140076 
	C550.008118,627.041199 554.816040,627.035339 559.620850,627.108398 
	C560.776062,627.125916 562.035339,627.550720 561.993286,629.089722 
	C561.953186,630.557861 560.770508,631.119080 559.588501,631.062134 
	C555.184509,630.849976 554.949463,633.636841 555.026001,636.919312 
	C555.111084,640.564331 555.043335,644.216736 554.908630,647.861023 
	C554.859558,649.188049 554.476501,650.673157 552.732178,650.665710 
	C550.908081,650.657959 550.781311,649.141846 550.757812,647.800720 
	C550.696899,644.318420 550.497314,640.818542 550.756226,637.355774 
	C551.069397,633.166321 550.065857,630.545471 545.207581,630.973206 
	C544.664368,631.021057 544.063354,630.413269 543.304871,629.736389 
z"/>
<path fill="#000000" opacity="1.000000" stroke="none" 
	d="
M593.379517,646.765625 
	C596.246094,647.699951 600.942993,645.422791 600.920532,648.930786 
	C600.893738,653.131226 596.190063,650.939392 593.648254,651.054138 
	C586.733398,651.366394 586.710083,651.131836 586.688110,644.313843 
	C586.674744,640.176880 586.606506,636.037415 586.726074,631.903870 
	C586.773621,630.259644 585.942139,627.604736 588.593994,627.560608 
	C591.481079,627.512695 590.869019,630.295410 590.935547,632.138672 
	C591.054749,635.443726 590.914795,638.757446 590.974365,642.065857 
	C591.006348,643.838013 590.722351,645.826599 593.379517,646.765625 
z"/>
<path fill="#000000" opacity="1.000000" stroke="none" 
	d="
M622.438354,473.109558 
	C628.780945,470.854553 629.729065,471.593719 628.568176,477.603058 
	C627.863037,481.252686 628.234619,485.300568 625.127808,488.881287 
	C622.276550,485.109467 626.028870,481.583374 624.022156,478.314758 
	C620.311157,480.721069 621.156677,486.330109 617.195496,488.722687 
	C615.167419,484.129547 617.575378,477.099396 622.438354,473.109558 
z"/>
<path fill="#000000" opacity="1.000000" stroke="none" 
	d="
M574.632080,650.079346 
	C572.123474,650.995789 571.693909,649.528259 571.677185,647.927185 
	C571.614868,641.964111 571.636047,635.999939 571.655701,630.036377 
	C571.660400,628.620850 571.978210,627.241150 573.786926,627.358643 
	C575.312561,627.457825 575.495422,628.744751 575.438782,629.953308 
	C575.129517,636.556885 575.889587,643.187378 574.632080,650.079346 
z"/>
</svg>