<svg width="800" height="800" viewBox="0 0 630 668" fill="none" xmlns="http://www.w3.org/2000/svg">
<path d="M314.98 34V167.333M314.98 167.333V500.667M314.98 167.333L214.981 67.3333M314.98 167.333L414.98 67.3333M314.98 500.667V634M314.98 500.667L214.981 600.667M314.98 500.667L414.98 600.667M55.208 184L170.678 250.666M170.678 250.666L459.353 417.333M170.678 250.666L34.0757 287.27M170.678 250.666L134.076 114.064M459.353 417.333L574.823 484M459.353 417.333L495.957 553.937M459.353 417.333L595.957 380.73M55.2233 484L170.693 417.333M170.693 417.333L459.37 250.666M170.693 417.333L34.091 380.73M170.693 417.333L134.091 553.937M459.37 250.666L574.84 184M459.37 250.666L495.97 114.064M459.37 250.666L595.97 287.27" stroke="#F93339" stroke-width="66.6667" stroke-linecap="round" stroke-linejoin="round"/>
</svg>
